<?xml version="1.0" encoding="utf-8"?>
<!-- Generator: Adobe Illustrator 25.0.0, SVG Export Plug-In . SVG Version: 6.00 Build 0)  -->
<svg version="1.1" xmlns="http://www.w3.org/2000/svg" xmlns:xlink="http://www.w3.org/1999/xlink" x="0px" y="0px"
	 viewBox="0 0 792 612" enable-background="new 0 0 792 612" xml:space="preserve">
<g id="Layer_3">
</g>
<g id="MainArt">
	<path fill="#4B4A4A" d="M284.17,253.48c-23.21-9.76-53.07-5.95-53.07-5.95c-10.45,10.32-16.44,27.31-17.24,29.69
		c-0.82-2.42-6.88-19.54-18.05-29.78c-5.58-0.52-31.83-2.67-52.19,6.36c-5.71,2.53-19.74,11.16-19.74,23.84
		c0,14.13,15.51,22.68,19.6,24.77c4.04,2.06,15.36,6.1,45.21,6.1c0.65,0,9.32,0,9.32,0l-0.06-7.85c-0.18-11.78-1.98-19.87-9.49-25
		c-6.99-4.77-21.03-2.65-28.39,2.65c0,0,8.22-1.61,15.14-0.77c3.07,0.37,5.89,1.77,7.62,3.09c5.63,4.3,6.54,17.54-10.92,17.54
		c-20.44,0-28.63-12.58-28.47-19.86c0.19-8.15,7.73-20.88,27.67-20.88c-0.01,0-0.01,0.01-0.01,0.01c3.92-0.14,7.39,0.49,10.44,1.57
		c-1.52-1.83-3.1-3.5-4.69-5.04c16.43,3.27,21.53,13.91,24.02,17.88c5.25,9.76,12,45.17,12.96,50.2l0,0.61
		c0.02-0.11,0.04-0.22,0.05-0.33c0.04,0.21,0.06,0.33,0.06,0.33l0-0.71c2.72-16.79,7.77-40.32,13.25-50.03
		c2.46-3.94,8.92-14.83,23.03-17.85c-1.61,1.55-3.2,3.25-4.73,5.11c3.16-1.19,6.78-1.89,10.9-1.75c21.08,0,27.39,13.51,27.39,20.21
		c0,10.84-9.93,20.63-28.19,20.63c-9.21,0-11.72-1.16-14.02-1.8c-0.57-1.47-5.34-14.24-0.94-30.09c0,0-5.82,6.37-8.78,17.17
		c-2.96,10.8-2.31,24.94-2.31,24.94s1.67,0,9.09,0c26.61,0,37.28-2.27,45.21-6.1c5.34-2.58,19.6-11.46,19.6-24.77
		C303.47,265.51,290.87,256.3,284.17,253.48z"/>
</g>
<g id="Top">
</g>
<g id="Inner_Circles" display="none">
	<ellipse display="inline" fill="none" stroke="#00ADEE" stroke-miterlimit="10" cx="263.67" cy="340.67" rx="80" ry="61.67"/>
	
		<ellipse display="inline" fill="none" stroke="#00ADEE" stroke-width="0.5" stroke-miterlimit="10" cx="527" cy="340.67" rx="80" ry="61.67"/>
</g>
<g id="Curves" display="none">
	<path display="inline" fill="none" stroke="#EC1C24" stroke-width="0.5" stroke-miterlimit="10" d="M319.69,433.23
		c-53.13,0-101.31-2.08-136.59-18.44c-36.53-16.94-59.22-48.62-59.22-74.83c0-26.3,22.86-55.06,59.62-72.01
		c35.24-16.25,83.26-21.25,136.19-21.25V433.23z"/>
	<path display="inline" fill="none" stroke="#EC1C24" stroke-width="0.5" stroke-miterlimit="10" d="M470.61,433.23
		c53.13,0,101.31-2.08,136.59-18.44c36.53-16.94,59.22-48.62,59.22-74.83c0-26.3-21.85-56.06-58.62-73.01
		c-35.24-16.25-84.26-20.25-137.19-20.25V433.23z"/>
</g>
<g id="Layer_2" display="none">
	<path display="inline" fill="#752157" d="M454.67,234.09c-35.04,18.98-58.09,55.94-59.29,57.9c-1.2-1.96-24.25-38.92-59.29-57.9
		c0,0,56.45,52.8,59.23,84.62v2.37c0-0.55,0.02-1.11,0.06-1.67c0.04,0.56,0.06,1.12,0.06,1.67v-2.37
		C398.22,286.89,454.67,234.09,454.67,234.09z"/>
</g>
</svg>
